<svg width="318" height="377" viewBox="0 0 318 377" fill="none" xmlns="http://www.w3.org/2000/svg">
<path d="M301.395 183.941H221.653C219.832 183.947 218.033 183.537 216.394 182.743C214.755 181.948 213.319 180.791 212.195 179.358C211.051 177.912 210.252 176.224 209.858 174.423C209.465 172.622 209.488 170.755 209.925 168.963C217.256 138.257 217.256 106.256 209.924 75.5499C209.487 73.7589 209.465 71.8918 209.858 70.0908C210.252 68.2897 211.051 66.6021 212.195 65.1564C213.319 63.7233 214.755 62.5656 216.394 61.7712C218.033 60.9769 219.832 60.5668 221.653 60.5724H301.395C304.267 60.5809 307.043 61.6088 309.228 63.473C311.414 65.3371 312.866 67.9164 313.328 70.7515C318.584 104.887 318.584 139.627 313.328 173.762C312.866 176.597 311.414 179.177 309.228 181.041C307.043 182.905 304.267 183.933 301.395 183.941Z" fill="#7D7A7A"/>
<path d="M261.747 144.844C274.45 144.844 284.747 134.547 284.747 121.844C284.747 109.142 274.45 98.8443 261.747 98.8443C249.045 98.8443 238.747 109.142 238.747 121.844C238.747 134.547 249.045 144.844 261.747 144.844Z" fill="#A4A4A4"/>
<path d="M272.747 118.844H264.747V110.844C264.747 110.049 264.431 109.286 263.868 108.723C263.306 108.16 262.543 107.844 261.747 107.844C260.951 107.844 260.188 108.16 259.626 108.723C259.063 109.286 258.747 110.049 258.747 110.844V118.844H250.747C249.951 118.844 249.188 119.16 248.626 119.723C248.063 120.286 247.747 121.049 247.747 121.844C247.747 122.64 248.063 123.403 248.626 123.966C249.188 124.528 249.951 124.844 250.747 124.844H258.747V132.844C258.747 133.64 259.063 134.403 259.626 134.966C260.188 135.528 260.951 135.844 261.747 135.844C262.543 135.844 263.306 135.528 263.868 134.966C264.431 134.403 264.747 133.64 264.747 132.844V124.844H272.747C273.543 124.844 274.306 124.528 274.868 123.966C275.431 123.403 275.747 122.64 275.747 121.844C275.747 121.049 275.431 120.286 274.868 119.723C274.306 119.16 273.543 118.844 272.747 118.844V118.844Z" fill="#161616"/>
<path d="M78.532 364.405H90.792L94.625 317.117H78.53L78.532 364.405Z" fill="#FFB8B8"/>
<path d="M75.4052 360.403L99.549 360.402H99.55C101.571 360.402 103.571 360.8 105.438 361.573C107.305 362.346 109.001 363.479 110.43 364.908C111.859 366.337 112.992 368.033 113.765 369.9C114.538 371.767 114.936 373.767 114.936 375.788V376.288L75.4059 376.289L75.4052 360.403Z" fill="black"/>
<path d="M12.532 364.405H24.792L30.625 317.117H12.53L12.532 364.405Z" fill="#FFB8B8"/>
<path d="M9.40515 360.403L33.549 360.402H33.55C35.5705 360.402 37.5713 360.8 39.4381 361.573C41.3049 362.346 43.0011 363.479 44.4299 364.908C45.8586 366.337 46.992 368.033 47.7652 369.9C48.5385 371.767 48.9365 373.767 48.9364 375.788V376.288L9.40591 376.289L9.40515 360.403Z" fill="black"/>
<path d="M14.7072 349.467C13.4566 349.467 12.2518 348.996 11.3322 348.149V348.149C10.8385 347.698 10.4409 347.153 10.1633 346.545C9.88566 345.937 9.73368 345.279 9.71646 344.611L4.7998 168.398L74.611 185.85L96.1505 250.468C98.9281 258.781 100.131 267.538 99.6959 276.292L97.0214 338.929C96.9604 340.212 96.4074 341.422 95.4774 342.309C94.5473 343.195 93.3116 343.689 92.027 343.688H80.318C79.1094 343.683 77.9431 343.242 77.0331 342.447C76.123 341.652 75.5301 340.555 75.3632 339.358L66.9943 270.216C66.263 264.823 64.3761 259.65 61.4625 255.052L44.993 228.976C44.8829 228.802 44.7217 228.666 44.5314 228.587C44.3411 228.508 44.131 228.49 43.9299 228.535C43.7288 228.579 43.5464 228.685 43.4078 228.838C43.2692 228.99 43.181 229.182 43.1554 229.386L30.2308 344.475C30.092 345.642 29.5459 346.723 28.6886 347.527C27.8312 348.331 26.7176 348.807 25.5438 348.871L14.9918 349.458C14.8969 349.463 14.8022 349.467 14.7072 349.467Z" fill="#9D8189"/>
<path d="M62.9936 54.3114C76.5583 54.3114 87.5547 43.3151 87.5547 29.7504C87.5547 16.1857 76.5583 5.18939 62.9936 5.18939C49.429 5.18939 38.4326 16.1857 38.4326 29.7504C38.4326 43.3151 49.429 54.3114 62.9936 54.3114Z" fill="#FFB8B8"/>
<path d="M74.2765 193.017C73.8539 193.016 73.433 192.963 73.0236 192.858H73.0228L3.75854 175.098C2.52016 174.781 1.45035 174.001 0.769064 172.919C0.0877786 171.838 -0.153221 170.536 0.0956628 169.282L16.0028 83.5914C16.9939 78.6381 19.1723 73.9993 22.351 70.0734C25.5297 66.1475 29.6138 63.0517 34.2526 61.0518C38.7724 59.0514 43.7152 58.1943 48.6448 58.5562C53.5743 58.9182 58.3389 60.4879 62.5182 63.127C63.4879 63.732 64.4647 64.3917 65.4208 65.088C69.2697 67.9272 72.4084 71.6196 74.5908 75.8754C76.7733 80.1312 77.9401 84.8348 77.9996 89.6173L79.2645 187.946C79.273 188.607 79.1504 189.264 78.9038 189.877C78.6571 190.491 78.2913 191.05 77.8276 191.521C77.3638 191.993 76.8112 192.367 76.2017 192.624C75.5922 192.881 74.9379 193.014 74.2765 193.017V193.017Z" fill="#F4ACB7"/>
<path d="M10.8853 194.024C10.059 192.808 9.50944 191.426 9.2752 189.975C9.04095 188.524 9.12779 187.039 9.52956 185.624C9.93132 184.21 10.6383 182.901 11.6006 181.79C12.5629 180.679 13.7572 179.792 15.0993 179.192L12.0185 143.59L28.3445 152.439L28.7671 184.89C29.6254 187.212 29.6023 189.767 28.7022 192.073C27.8021 194.379 26.0875 196.274 23.8833 197.4C21.6792 198.526 19.1386 198.804 16.743 198.182C14.3474 197.56 12.2632 196.081 10.8853 194.024H10.8853Z" fill="#FFB8B8"/>
<path d="M16.7179 174.483C16.2573 174.483 15.7985 174.425 15.3522 174.311C14.3923 174.066 13.5165 173.566 12.8173 172.864C12.1181 172.163 11.6216 171.285 11.3803 170.324L3.35708 138.441C0.553191 127.305 1.88982 115.53 7.11831 105.306L23.9271 72.4239C24.9897 68.487 27.557 65.1255 31.0755 63.0642C34.5939 61.003 38.7815 60.4072 42.7353 61.4053C44.7059 61.903 46.5581 62.7868 48.1846 64.0057C49.811 65.2246 51.1793 66.7542 52.2101 68.5059C53.2621 70.2827 53.9502 72.251 54.2341 74.2963C54.5181 76.3415 54.3923 78.4228 53.8642 80.419L29.9367 133.925L30.2208 165.961C30.2282 167.091 29.8884 168.196 29.2473 169.127C28.6063 170.057 27.6949 170.769 26.6364 171.165L18.6291 174.139C18.0176 174.367 17.3704 174.483 16.7179 174.483Z" fill="#F4ACB7"/>
<path d="M131.254 180.929C129.793 180.762 128.387 180.277 127.134 179.508C125.881 178.739 124.812 177.704 124.003 176.477C123.193 175.25 122.662 173.86 122.448 172.406C122.233 170.952 122.34 169.468 122.761 168.059L93.7673 147.17L111.124 140.568L135.996 161.417C138.315 162.281 140.237 163.966 141.397 166.152C142.558 168.338 142.876 170.874 142.291 173.279C141.707 175.684 140.26 177.792 138.226 179.201C136.192 180.611 133.711 181.226 131.254 180.929H131.254Z" fill="#FFB8B8"/>
<path d="M116.076 165.675C115.221 165.674 114.378 165.475 113.613 165.093L84.214 150.376C73.9454 145.236 65.8927 136.542 61.5534 125.911L47.5961 91.7203C45.3057 88.3465 44.4327 84.2077 45.1656 80.1962C45.8985 76.1848 48.1784 72.622 51.5138 70.276C53.1804 69.1042 55.0634 68.2758 57.0533 67.8391C59.0432 67.4025 61.1001 67.3662 63.1042 67.7325C65.1318 68.0971 67.0668 68.8604 68.7973 69.9783C70.5277 71.0961 72.0191 72.5463 73.185 74.2447L98.1301 127.284L122.596 147.967C123.457 148.698 124.073 149.677 124.361 150.77C124.648 151.863 124.593 153.018 124.203 154.079L121.233 162.087C120.845 163.137 120.145 164.043 119.226 164.683C118.302 165.329 117.203 165.675 116.076 165.675V165.675Z" fill="#F4ACB7"/>
<path d="M57.8362 54.6874C59.1412 55.2584 61.8136 44.8601 60.6165 42.7804C58.8362 39.6874 58.9415 39.7096 57.7597 37.6634C56.5779 35.6171 56.3134 32.8162 57.8438 31.0157C59.3742 29.2153 62.9158 29.4541 63.6143 31.7115C63.165 27.4237 67.4062 23.977 71.6073 23.0084C75.8084 22.0398 80.2397 22.6412 84.4639 21.7793C89.3664 20.7789 94.4671 16.6695 92.5111 11.2786C92.1755 10.381 91.6729 9.55512 91.0301 8.84448C88.7701 6.30354 85.6089 5.21856 82.5181 4.1695C76.088 1.98704 69.4821 -0.222852 62.696 0.0180681C57.1046 0.310418 51.7197 2.2264 47.2002 5.53153C42.6808 8.83665 39.2229 13.3875 37.2496 18.6273C36.7819 19.9381 36.4196 21.2842 36.1662 22.6527C33.8369 35.1769 41.1098 47.5306 52.9224 52.2998L57.8362 54.6874Z" fill="black"/>
<path opacity="0.2" d="M28.8359 166.687L29.3929 133.758L46.8359 98.6873L32.8359 134.687L28.8359 166.687Z" fill="black"/>
<path d="M187.013 249.327L113.375 218.731C111.761 218.066 110.319 217.042 109.161 215.736C108.002 214.43 107.157 212.877 106.689 211.196C106.207 209.494 106.121 207.706 106.435 205.966C106.75 204.226 107.457 202.581 108.503 201.156C127.101 175.548 139.41 145.923 144.434 114.676C144.706 112.929 145.373 111.267 146.384 109.817C147.395 108.367 148.723 107.166 150.268 106.307C151.79 105.451 153.487 104.955 155.23 104.855C156.973 104.754 158.716 105.053 160.326 105.728L233.964 136.323C236.504 137.387 238.583 139.317 239.832 141.771C241.081 144.224 241.419 147.042 240.785 149.721C232.553 183.211 219.244 215.244 201.32 244.707C199.868 247.047 197.634 248.795 195.014 249.641C192.394 250.487 189.559 250.376 187.013 249.327Z" fill="#A0A0A0"/>
<path d="M158.024 111.268C157.251 110.944 156.414 110.801 155.577 110.848C154.74 110.896 153.925 111.134 153.194 111.545C152.442 111.964 151.796 112.549 151.305 113.256C150.813 113.963 150.49 114.772 150.358 115.623C145.184 147.803 132.508 178.314 113.354 204.686C112.844 205.379 112.499 206.18 112.345 207.026C112.191 207.873 112.232 208.743 112.465 209.572L112.465 209.572C112.69 210.38 113.096 211.126 113.653 211.753C114.209 212.38 114.902 212.871 115.677 213.19L189.315 243.786C190.536 244.294 191.897 244.352 193.157 243.949C194.417 243.547 195.492 242.711 196.193 241.59C213.8 212.649 226.873 181.184 234.959 148.287C235.259 147 235.092 145.647 234.489 144.471C233.885 143.295 232.883 142.371 231.662 141.864L158.024 111.268Z" fill="white"/>
<path d="M197.233 179.376L158.591 163.321C157.122 162.709 155.957 161.539 155.35 160.069C154.743 158.599 154.743 156.948 155.352 155.478L156.252 153.313C156.864 151.844 158.033 150.679 159.503 150.072C160.974 149.465 162.625 149.465 164.094 150.074L202.737 166.129C204.205 166.741 205.371 167.911 205.978 169.381C206.585 170.851 206.584 172.502 205.975 173.972L205.076 176.137C204.464 177.606 203.294 178.771 201.824 179.378C200.354 179.985 198.703 179.985 197.233 179.376V179.376Z" fill="#F4ACB7"/>
<path d="M185.866 206.734L147.224 190.679C145.755 190.067 144.59 188.898 143.983 187.427C143.376 185.957 143.377 184.306 143.985 182.836L144.885 180.671C145.497 179.203 146.666 178.037 148.136 177.43C149.607 176.823 151.258 176.824 152.727 177.433L191.37 193.488C192.838 194.1 194.004 195.269 194.611 196.739C195.218 198.21 195.217 199.861 194.608 201.33L193.709 203.496C193.097 204.964 191.928 206.13 190.457 206.737C188.987 207.344 187.336 207.343 185.866 206.734V206.734Z" fill="#F4ACB7"/>
<path d="M212.717 140.926C212.139 140.926 211.566 140.814 211.03 140.596L172.092 124.853C170.987 124.405 170.104 123.536 169.638 122.438C169.172 121.34 169.161 120.101 169.607 118.995L172.605 111.578C173.053 110.471 173.922 109.588 175.02 109.122C176.119 108.656 177.358 108.646 178.464 109.093L217.402 124.836C218.508 125.284 219.39 126.153 219.856 127.251C220.322 128.349 220.333 129.587 219.887 130.694L216.889 138.111C216.552 138.942 215.975 139.653 215.232 140.154C214.489 140.656 213.614 140.925 212.717 140.926V140.926Z" fill="#CCCCCC"/>
</svg>
