<svg width="318" height="377" viewBox="0 0 318 377" fill="none" xmlns="http://www.w3.org/2000/svg">
<path d="M301.459 184.597H221.717C219.896 184.603 218.097 184.193 216.458 183.398C214.819 182.604 213.383 181.446 212.259 180.013C211.115 178.567 210.316 176.88 209.922 175.079C209.529 173.277 209.552 171.41 209.989 169.619C217.32 138.913 217.32 106.912 209.988 76.2056C209.552 74.4146 209.529 72.5475 209.922 70.7464C210.316 68.9454 211.115 67.2578 212.259 65.812C213.383 64.379 214.819 63.2213 216.458 62.4269C218.097 61.6326 219.896 61.2225 221.717 61.228H301.459C304.331 61.2366 307.107 62.2645 309.293 64.1286C311.478 65.9928 312.931 68.5721 313.392 71.4072C318.648 105.543 318.648 140.282 313.392 174.418C312.931 177.253 311.478 179.832 309.293 181.697C307.107 183.561 304.331 184.589 301.459 184.597V184.597Z" fill="white"/>
<path d="M261.811 145.5C274.514 145.5 284.811 135.203 284.811 122.5C284.811 109.797 274.514 99.5 261.811 99.5C249.109 99.5 238.811 109.797 238.811 122.5C238.811 135.203 249.109 145.5 261.811 145.5Z" fill="#9F9F9F"/>
<path d="M272.811 119.5H264.811V111.5C264.811 110.704 264.495 109.941 263.932 109.379C263.37 108.816 262.607 108.5 261.811 108.5C261.015 108.5 260.252 108.816 259.69 109.379C259.127 109.941 258.811 110.704 258.811 111.5V119.5H250.811C250.015 119.5 249.252 119.816 248.69 120.379C248.127 120.941 247.811 121.704 247.811 122.5C247.811 123.296 248.127 124.059 248.69 124.621C249.252 125.184 250.015 125.5 250.811 125.5H258.811V133.5C258.811 134.296 259.127 135.059 259.69 135.621C260.252 136.184 261.015 136.5 261.811 136.5C262.607 136.5 263.37 136.184 263.932 135.621C264.495 135.059 264.811 134.296 264.811 133.5V125.5H272.811C273.607 125.5 274.37 125.184 274.932 124.621C275.495 124.059 275.811 123.296 275.811 122.5C275.811 121.704 275.495 120.941 274.932 120.379C274.37 119.816 273.607 119.5 272.811 119.5V119.5Z" fill="#E6E6E6"/>
<path d="M78.596 365.061H90.856L94.689 317.773H78.594L78.596 365.061Z" fill="#FFB8B8"/>
<path d="M75.4692 361.058L99.613 361.057H99.614C101.635 361.057 103.635 361.455 105.502 362.229C107.369 363.002 109.065 364.135 110.494 365.564C111.923 366.993 113.056 368.689 113.829 370.556C114.602 372.422 115 374.423 115 376.444V376.944L75.4699 376.945L75.4692 361.058Z" fill="#2F2E41"/>
<path d="M12.596 365.061H24.856L30.689 317.773H12.594L12.596 365.061Z" fill="#FFB8B8"/>
<path d="M9.46918 361.058L33.613 361.057H33.614C35.6346 361.057 37.6354 361.455 39.5021 362.229C41.3689 363.002 43.0651 364.135 44.4939 365.564C45.9227 366.993 47.056 368.689 47.8293 370.556C48.6025 372.422 49.0005 374.423 49.0005 376.444V376.944L9.46994 376.945L9.46918 361.058Z" fill="#2F2E41"/>
<path d="M14.7712 350.123C13.5206 350.122 12.3158 349.652 11.3962 348.804V348.804C10.9026 348.354 10.505 347.808 10.2273 347.201C9.94968 346.593 9.7977 345.935 9.78049 345.267L4.86383 169.054L74.675 186.506L96.2145 251.124C98.9922 259.436 100.195 268.194 99.7599 276.948L97.0854 339.584C97.0244 340.868 96.4714 342.078 95.5414 342.964C94.6113 343.85 93.3757 344.344 92.091 344.343H80.382C79.1734 344.338 78.0072 343.898 77.0971 343.103C76.187 342.307 75.5941 341.211 75.4272 340.014L67.0583 270.872C66.327 265.478 64.4401 260.306 61.5266 255.708L45.0571 229.632C44.9469 229.458 44.7857 229.322 44.5954 229.243C44.4051 229.164 44.195 229.145 43.9939 229.19C43.7928 229.235 43.6105 229.341 43.4718 229.494C43.3332 229.646 43.245 229.838 43.2194 230.042L30.2948 345.13C30.1561 346.298 29.61 347.379 28.7526 348.183C27.8952 348.987 26.7816 349.463 25.6078 349.527L15.0558 350.114C14.9609 350.119 14.8662 350.123 14.7712 350.123Z" fill="#9D8189"/>
<path d="M63.0577 54.9671C76.6224 54.9671 87.6187 43.9708 87.6187 30.4061C87.6187 16.8414 76.6224 5.84506 63.0577 5.84506C49.493 5.84506 38.4966 16.8414 38.4966 30.4061C38.4966 43.9708 49.493 54.9671 63.0577 54.9671Z" fill="#FFB8B8"/>
<path d="M74.3405 193.672C73.9179 193.672 73.497 193.618 73.0876 193.513H73.0868L3.82256 175.753C2.58418 175.436 1.51437 174.657 0.83309 173.575C0.151805 172.493 -0.0891956 171.192 0.159689 169.938L16.0668 84.2471C17.0579 79.2938 19.2363 74.655 22.415 70.7291C25.5938 66.8032 29.6778 63.7074 34.3166 61.7075C38.8365 59.7071 43.7793 58.85 48.7088 59.2119C53.6383 59.5738 58.4029 61.1436 62.5822 63.7827C63.5519 64.3877 64.5287 65.0474 65.4848 65.7436C69.3337 68.5829 72.4724 72.2752 74.6549 76.5311C76.8373 80.7869 78.0041 85.4905 78.0637 90.2729L79.3285 188.602C79.337 189.263 79.2144 189.919 78.9678 190.533C78.7212 191.147 78.3554 191.705 77.8916 192.177C77.4278 192.648 76.8752 193.023 76.2657 193.28C75.6562 193.537 75.0019 193.67 74.3405 193.672V193.672Z" fill="#F4ACB7"/>
<path d="M10.9493 194.68C10.1231 193.464 9.57346 192.082 9.33922 190.631C9.10498 189.179 9.19182 187.694 9.59359 186.28C9.99535 184.866 10.7023 183.557 11.6646 182.446C12.6269 181.334 13.8212 180.448 15.1633 179.848L12.0825 144.246L28.4086 153.094L28.8312 185.546C29.6895 187.867 29.6664 190.423 28.7663 192.729C27.8661 195.034 26.1515 196.93 23.9474 198.056C21.7432 199.181 19.2026 199.46 16.807 198.838C14.4114 198.215 12.3272 196.736 10.9494 194.68H10.9493Z" fill="#FFB8B8"/>
<path d="M16.7819 175.139C16.3213 175.139 15.8625 175.081 15.4162 174.966C14.4564 174.721 13.5805 174.222 12.8813 173.52C12.1821 172.818 11.6856 171.941 11.4443 170.98L3.42111 139.096C0.617216 127.96 1.95385 116.185 7.18234 105.961L23.9912 73.0796C25.0537 69.1427 27.621 65.7811 31.1395 63.7199C34.6579 61.6586 38.8456 61.0629 42.7993 62.061C44.7699 62.5586 46.6221 63.4425 48.2486 64.6614C49.875 65.8803 51.2433 67.4099 52.2741 69.1616C53.3262 70.9384 54.0142 72.9067 54.2981 74.952C54.5821 76.9972 54.4564 79.0785 53.9282 81.0747L30.0007 134.581L30.2849 166.616C30.2922 167.746 29.9524 168.852 29.3114 169.782C28.6703 170.713 27.7589 171.425 26.7004 171.821L18.6931 174.794C18.0816 175.022 17.4344 175.139 16.7819 175.139Z" fill="#F4ACB7"/>
<path d="M131.318 181.585C129.857 181.418 128.451 180.933 127.198 180.163C125.945 179.394 124.876 178.36 124.067 177.133C123.257 175.906 122.726 174.516 122.512 173.062C122.297 171.607 122.404 170.124 122.825 168.715L93.8313 147.826L111.188 141.224L136.06 162.073C138.379 162.937 140.301 164.622 141.461 166.808C142.622 168.994 142.94 171.53 142.355 173.935C141.771 176.34 140.324 178.447 138.29 179.857C136.256 181.267 133.775 181.882 131.318 181.585H131.318Z" fill="#FFB8B8"/>
<path d="M116.14 166.331C115.285 166.33 114.442 166.131 113.677 165.749L84.2781 151.032C74.0094 145.892 65.9567 137.198 61.6174 126.566L47.6602 92.376C45.3697 89.0022 44.4968 84.8634 45.2296 80.8519C45.9625 76.8405 48.2424 73.2777 51.5779 70.9317C53.2444 69.7599 55.1275 68.9315 57.1174 68.4948C59.1073 68.0581 61.1642 68.0219 63.1682 68.3882C65.1958 68.7528 67.1309 69.5161 68.8613 70.634C70.5917 71.7518 72.0831 73.202 73.249 74.9004L98.1941 127.94L122.66 148.623C123.521 149.354 124.138 150.333 124.425 151.426C124.712 152.519 124.657 153.674 124.267 154.734L121.297 162.743C120.909 163.793 120.209 164.699 119.29 165.339C118.366 165.984 117.267 166.331 116.14 166.331V166.331Z" fill="#F4ACB7"/>
<path d="M57.9002 55.3431C59.2052 55.9141 61.8775 45.5158 60.6804 43.436C58.9002 40.3431 59.0054 40.3653 57.8236 38.319C56.6418 36.2728 56.3774 33.4719 57.9078 31.6714C59.4382 29.8709 62.9798 30.1098 63.6782 32.3672C63.2289 28.0794 67.4701 24.6327 71.6712 23.6641C75.8723 22.6955 80.3037 23.2969 84.5279 22.4349C89.4303 21.4346 94.5311 17.3252 92.5751 11.9342C92.2394 11.0367 91.7369 10.2108 91.094 9.50015C88.8341 6.95921 85.6729 5.87423 82.582 4.82517C76.152 2.64271 69.546 0.432818 62.7599 0.673738C57.1685 0.966088 51.7836 2.88207 47.2642 6.1872C42.7448 9.49232 39.2868 14.0432 37.3136 19.283C36.8459 20.5938 36.4836 21.9399 36.2301 23.3084C33.9009 35.8326 41.1738 48.1863 52.9864 52.9555L57.9002 55.3431Z" fill="#2F2E41"/>
<path opacity="0.2" d="M28.9 167.343L29.457 134.414L46.9 99.343L32.9 135.343L28.9 167.343Z" fill="black"/>
<path d="M187.077 249.982L113.439 219.387C111.825 218.722 110.384 217.698 109.225 216.392C108.066 215.086 107.221 213.533 106.753 211.851C106.272 210.15 106.185 208.361 106.499 206.622C106.814 204.882 107.521 203.237 108.567 201.811C127.165 176.204 139.474 146.578 144.498 115.331C144.77 113.585 145.437 111.923 146.448 110.473C147.459 109.022 148.787 107.822 150.332 106.962C151.854 106.107 153.551 105.611 155.294 105.51C157.037 105.41 158.78 105.709 160.39 106.383L234.028 136.979C236.568 138.043 238.647 139.973 239.896 142.427C241.145 144.88 241.483 147.697 240.849 150.377C232.617 183.867 219.308 215.9 201.384 245.363C199.932 247.702 197.698 249.451 195.078 250.297C192.458 251.143 189.623 251.031 187.077 249.982Z" fill="#E6E6E6"/>
<path d="M158.088 111.924C157.315 111.6 156.478 111.456 155.641 111.504C154.804 111.552 153.989 111.79 153.258 112.2C152.506 112.62 151.86 113.205 151.369 113.912C150.877 114.618 150.554 115.428 150.422 116.278C145.248 148.459 132.572 178.97 113.418 205.342C112.908 206.035 112.563 206.835 112.409 207.682C112.255 208.528 112.296 209.399 112.529 210.227L112.529 210.228C112.754 211.036 113.16 211.781 113.717 212.408C114.273 213.035 114.966 213.527 115.741 213.846L189.379 244.442C190.6 244.949 191.962 245.007 193.221 244.605C194.481 244.203 195.556 243.367 196.257 242.245C213.864 213.305 226.937 181.84 235.023 148.943C235.323 147.655 235.156 146.303 234.553 145.127C233.949 143.95 232.947 143.027 231.726 142.52L158.088 111.924Z" fill="white"/>
<path d="M197.297 180.031L158.655 163.976C157.186 163.364 156.021 162.195 155.414 160.725C154.807 159.254 154.807 157.603 155.416 156.134L156.316 153.968C156.928 152.5 158.097 151.335 159.567 150.727C161.038 150.12 162.689 150.121 164.158 150.73L202.801 166.785C204.269 167.397 205.435 168.566 206.042 170.037C206.649 171.507 206.648 173.158 206.039 174.628L205.14 176.793C204.528 178.261 203.358 179.427 201.888 180.034C200.418 180.641 198.767 180.64 197.297 180.031V180.031Z" fill="#F4ACB7"/>
<path d="M185.93 207.39L147.288 191.335C145.819 190.723 144.654 189.553 144.047 188.083C143.44 186.613 143.441 184.962 144.049 183.492L144.949 181.327C145.561 179.859 146.73 178.693 148.2 178.086C149.671 177.479 151.322 177.479 152.791 178.088L191.434 194.144C192.902 194.755 194.068 195.925 194.675 197.395C195.282 198.865 195.281 200.516 194.672 201.986L193.773 204.151C193.161 205.62 191.992 206.785 190.521 207.392C189.051 207.999 187.4 207.999 185.93 207.39V207.39Z" fill="#F4ACB7"/>
<path d="M212.781 141.582C212.203 141.582 211.63 141.469 211.094 141.251L172.156 125.509C171.05 125.06 170.168 124.192 169.702 123.093C169.236 121.995 169.225 120.757 169.671 119.65L172.669 112.233C173.117 111.127 173.985 110.244 175.084 109.778C176.183 109.312 177.422 109.301 178.528 109.749L217.466 125.491C218.572 125.94 219.454 126.808 219.92 127.906C220.386 129.005 220.397 130.243 219.951 131.35L216.953 138.767C216.616 139.597 216.039 140.309 215.296 140.81C214.553 141.312 213.678 141.58 212.781 141.582V141.582Z" fill="#CCCCCC"/>
</svg>
